<svg width="24" height="24" viewBox="0 0 18 18" fill="none" xmlns="http://www.w3.org/2000/svg">
<path d="M0.562523 16.937C0.429914 16.937 0.302738 16.9897 0.208969 17.0835C0.1152 17.1772 0.0625229 17.3044 0.0625229 17.437C0.0625229 17.5696 0.1152 17.6968 0.208969 17.7906C0.302738 17.8843 0.429914 17.937 0.562523 17.937L17.4365 17.939C17.5691 17.939 17.6963 17.8863 17.7901 17.7926C17.8838 17.6988 17.9365 17.5716 17.9365 17.439C17.9365 17.3064 17.8838 17.1792 17.7901 17.0855C17.6963 16.9917 17.5691 16.939 17.4365 16.939L0.562523 16.937ZM0.562523 8.50001C0.429914 8.50001 0.302738 8.55269 0.208969 8.64646C0.1152 8.74023 0.0625229 8.8674 0.0625229 9.00001C0.0625229 9.13262 0.1152 9.2598 0.208969 9.35357C0.302738 9.44733 0.429914 9.50001 0.562523 9.50001L10.5625 9.50101C10.6951 9.50101 10.8223 9.44833 10.9161 9.35456C11.0098 9.2608 11.0625 9.13362 11.0625 9.00101C11.0625 8.8684 11.0098 8.74123 10.9161 8.64746C10.8223 8.55369 10.6951 8.50101 10.5625 8.50101L0.562523 8.50001ZM0.562523 0.0620117C0.429914 0.0620117 0.302738 0.11469 0.208969 0.208458C0.1152 0.302226 0.0625229 0.429403 0.0625229 0.562012C0.0625229 0.69462 0.1152 0.821797 0.208969 0.915565C0.302738 1.00933 0.429914 1.06201 0.562523 1.06201L17.4365 1.06301C17.5691 1.06301 17.6963 1.01033 17.7901 0.916565C17.8838 0.822797 17.9365 0.69562 17.9365 0.563012C17.9365 0.430403 17.8838 0.303227 17.7901 0.209458C17.6963 0.11569 17.5691 0.0630116 17.4365 0.0630116L0.562523 0.0620117Z" fill="black"/>
</svg>
